<svg width="301" height="982" viewBox="0 0 301 982" fill="none" xmlns="http://www.w3.org/2000/svg">
<path d="M128 -140L154.7 -113.3C181 -86.7 235 -33 266.7 20C299 73.3 309 127 293.3 180C277 233.3 235 287 213.3 340C192 393.3 192 447 181.3 500C171 553.3 149 607 133.3 660C117 713.3 107 767 138.7 820C171 873.3 245 927 234.7 980C224 1033.3 128 1087 106.7 1140C85 1193.3 139 1247 165.3 1273L192 1300H0V1273.3C0 1246.7 0 1193 0 1140C0 1086.7 0 1033 0 980C0 926.7 0 873 0 820C0 766.7 0 713 0 660C0 606.7 0 553 0 500C0 446.7 0 393 0 340C0 286.7 0 233 0 180C0 126.7 0 73 0 20C0 -33.3 0 -87 0 -113V-140L128 -140Z" fill="#DA92E6"/>
<path d="M222.6 -16L233.887 11.8262C253.216 59.4748 253.45 112.737 234.541 160.554L171.722 319.41L80.6461 638.684C64.9699 693.638 73.5502 752.673 104.221 800.891L172.474 908.189C186.317 929.951 193.669 955.208 193.669 981V981" stroke="#F9DB35" stroke-width="2"/>
</svg>
