<svg width="288" height="982" viewBox="0 0 288 982" fill="none" xmlns="http://www.w3.org/2000/svg">
<path d="M0 1259L16 1232.3C32 1205.7 64 1152 69.3 1099C75 1045.7 53 992 37.3 939C21 885.7 11 832 42.7 779C75 725.7 149 672 181.3 619C213 565.7 203 512 170.7 459C139 405.7 85 352 74.7 299C64 245.7 96 192 90.7 139C85 85.6999 43 32 69.3 -21C96 -74.3001 192 -128 240 -154L288 -181V-154.3C288 -127.7 288 -74 288 -21C288 32.3 288 85.9999 288 139C288 192.3 288 246 288 299C288 352.3 288 406 288 459C288 512.3 288 566 288 619C288 672.3 288 726 288 779C288 832.3 288 886 288 939C288 992.3 288 1046 288 1099C288 1152.3 288 1206 288 1232V1259H0Z" fill="#DA92E6"/>
<path d="M91.5 3.49994L120.906 67.3825C139.442 107.65 144.075 152.934 134.077 196.12L128.685 219.411C118.833 261.964 123.183 306.572 141.069 346.42L186.753 448.197C214.912 510.931 208.869 583.731 170.752 640.962L106.402 737.582C78.1996 779.927 67.1955 831.43 75.6305 881.604L91.5 976" stroke="#F9DB35" stroke-width="2"/>
</svg>
